<svg width="32" height="32" viewBox="0 0 32 32" fill="none" xmlns="http://www.w3.org/2000/svg">
<g clip-path="url(#clip0_8208_74321)">
<path d="M1 12L16 4L31 12L16 20L1 12Z" stroke="#253C5F" stroke-width="2" stroke-linecap="round" stroke-linejoin="round"/>
<path d="M1 12L16 4L31 12L16 20L1 12Z" stroke="url(#paint0_linear_8208_74321)" stroke-width="2" stroke-linecap="round" stroke-linejoin="round"/>
<path d="M16 12L23 15.7338V30" stroke="#253C5F" stroke-width="2" stroke-linecap="round" stroke-linejoin="round"/>
<path d="M16 12L23 15.7338V30" stroke="url(#paint1_linear_8208_74321)" stroke-width="2" stroke-linecap="round" stroke-linejoin="round"/>
<path d="M27 14.1338V20.7863C27.0006 21.0307 26.9116 21.2668 26.75 21.45C25.3375 23.0238 21.8875 26 16 26C10.1125 26 6.665 23.0238 5.25 21.45C5.08837 21.2668 4.99944 21.0307 5 20.7863V14.1338" stroke="#253C5F" stroke-width="2" stroke-linecap="round" stroke-linejoin="round"/>
<path d="M27 14.1338V20.7863C27.0006 21.0307 26.9116 21.2668 26.75 21.45C25.3375 23.0238 21.8875 26 16 26C10.1125 26 6.665 23.0238 5.25 21.45C5.08837 21.2668 4.99944 21.0307 5 20.7863V14.1338" stroke="url(#paint2_linear_8208_74321)" stroke-width="2" stroke-linecap="round" stroke-linejoin="round"/>
</g>
<defs>
<linearGradient id="paint0_linear_8208_74321" x1="31" y1="22.386" x2="-7.47133" y2="-5.10157" gradientUnits="userSpaceOnUse">
<stop stop-color="#2A6F5B"/>
<stop offset="1" stop-color="#A5E51C"/>
</linearGradient>
<linearGradient id="paint1_linear_8208_74321" x1="23" y1="32.6842" x2="9.73214" y2="30.718" gradientUnits="userSpaceOnUse">
<stop stop-color="#2A6F5B"/>
<stop offset="1" stop-color="#A5E51C"/>
</linearGradient>
<linearGradient id="paint2_linear_8208_74321" x1="27" y1="27.7696" x2="-1.42633" y2="7.68662" gradientUnits="userSpaceOnUse">
<stop stop-color="#2A6F5B"/>
<stop offset="1" stop-color="#A5E51C"/>
</linearGradient>
<clipPath id="clip0_8208_74321">
<rect width="32" height="32" fill="white"/>
</clipPath>
</defs>
</svg>
