<svg width="111" height="662" viewBox="0 0 111 662" fill="none" xmlns="http://www.w3.org/2000/svg">
<path d="M28.3027 0.56006C19.6125 37.8972 10.9694 75.2784 2.27922 112.616C1.04003 117.964 -0.214413 123.469 0.582282 129.01C1.37898 134.552 4.75138 140.149 9.58439 141.29C17.4175 143.142 22.7162 133.287 25.6625 125.041C31.0339 109.817 36.4445 94.5861 41.8159 79.3616C50.3887 129.732 58.4999 180.228 66.1337 230.747C76.7044 300.586 86.5019 371.114 84.3837 441.364C82.2576 511.563 67.4506 582.224 32.5669 638.544C28.4111 645.23 23.8214 653.736 27.2221 661.286C45.8147 658.138 58.4731 639.287 67.5783 620.793C97.7294 559.657 109.778 487.784 110.022 416.337C110.266 344.89 99.1669 273.486 85.2599 203.093C75.0631 151.331 63.3172 99.9165 50.0771 48.9448C63.7294 76.9243 82.8378 101.619 105.564 120.537C95.6788 71.25 66.8129 26.4606 28.2636 0.566253L28.3027 0.56006ZM24.7403 113.131C23.9956 112.734 23.7968 111.477 24.3824 110.869C25.1271 111.267 25.3259 112.523 24.7403 113.131ZM25.8925 101.151C25.4621 101.219 25.3109 100.264 25.7413 100.196C26.1406 100.184 26.3229 101.082 25.8925 101.151ZM30.4037 95.6966C30.0907 95.7462 29.7929 95.6387 29.6199 95.3055C28.9362 94.2802 30.6393 92.8772 31.3309 93.9528C31.8103 94.7012 31.108 95.5852 30.4037 95.6966ZM35.9963 75.0274C35.2516 74.6301 35.0528 73.3735 35.6384 72.7656C36.3831 73.163 36.5819 74.4195 35.9963 75.0274ZM36.2978 70.3428C35.7726 70.0653 35.4576 69.3423 35.5578 68.7082L35.4795 68.7206C35.4703 68.1553 36.355 68.1699 36.5598 68.7042C36.7647 69.2385 36.5001 69.8471 36.2586 70.349L36.2978 70.3428ZM36.3373 64.257C36.1417 64.288 35.9302 64.2184 35.8513 63.9733C35.7717 63.4707 36.6013 63.3909 36.7121 63.8371C36.7518 64.0884 36.533 64.226 36.3373 64.257ZM39.6134 72.0335C39.183 72.1016 39.0398 71.1969 39.4623 71.0785C39.8536 71.0166 40.0438 71.9654 39.6134 72.0335ZM55.9071 633.717C55.1345 634.663 53.954 635.314 53.6283 636.551C52.7265 635.92 52.8081 634.156 53.7465 633.75L53.7227 633.599C54.3541 632.52 55.0326 631.485 55.7031 630.4C56.847 630.786 56.7189 632.764 55.9071 633.717ZM55.9307 85.6805C55.9326 86.453 55.3391 87.0106 54.6739 87.1159C54.3609 87.1654 54.0711 87.1083 53.7966 86.8941C52.973 86.2516 52.9923 84.5999 53.8366 84.1056C54.6808 83.6114 55.9513 84.5438 55.9227 85.6302L55.9307 85.6805ZM59.9325 624.939C59.5021 625.008 59.351 624.053 59.7814 623.985C60.1806 623.973 60.3238 624.878 59.9325 624.939ZM65.808 617.209L65.7921 617.108C65.168 617.98 64.5439 618.851 63.9198 619.723C63.4902 617.009 65.2134 614.212 67.5451 613.74C68.6438 614.854 67.1217 616.64 65.808 617.209ZM67.8383 612.045C67.6274 612.232 67.3694 612.376 67.0955 612.42C66.5478 612.506 65.9914 612.285 65.63 611.776C65.9013 610.702 66.729 609.85 67.6992 609.645L67.8789 609.514C68.4678 610.193 68.4239 611.437 67.8383 612.045ZM71.9683 604.436C71.4352 604.108 71.1282 603.435 71.2284 602.801L71.1893 602.807C71.18 602.242 72.0647 602.256 72.2695 602.791C72.4744 603.325 72.2489 603.927 72.0075 604.429L71.9683 604.436ZM76.6118 595.509C75.7796 594.559 74.7836 593.84 73.6788 593.448C73.5543 590.635 74.6043 587.892 76.4474 586.106C77.0579 589.204 77.0815 592.395 76.5647 595.465L76.6118 595.509ZM79.1392 585.629C78.7088 585.697 78.5576 584.742 78.988 584.674C79.4184 584.606 79.5696 585.561 79.1392 585.629ZM78.1598 575.892C78.0882 575.44 78.9019 575.259 79.0205 575.756C79.1001 576.258 78.2705 576.338 78.1598 575.892ZM81.054 581.256C81.0216 580.797 81.8041 580.673 81.9148 581.12C81.9944 581.622 81.1648 581.702 81.054 581.256ZM82.5824 575.707C81.7667 575.115 81.8405 573.3 82.8113 573.353L82.8896 573.34C82.3631 572.548 82.5635 571.279 83.2592 570.86C83.5216 572.519 83.3146 574.252 82.6215 575.701L82.5824 575.707ZM86.3488 554.142C85.4933 553.298 85.2468 551.74 85.7528 550.63L85.8311 550.617C86.6945 551.511 86.9019 553.076 86.3488 554.142ZM90.8161 549.932L90.6045 549.862C90.5216 551.112 90.4465 552.412 90.3635 553.661C89.0274 551.554 89.0277 548.514 90.3064 546.457C91.0915 547.363 91.283 548.827 90.769 549.888L90.8161 549.932ZM91.4284 538.088C91.0372 538.15 90.6141 538.011 90.3628 537.69C90.6738 536.868 91.7694 536.694 92.3191 537.38C92.1871 537.813 91.8197 538.026 91.4284 538.088ZM92.4307 525.667C92.3544 526.452 91.8159 527.104 91.1905 527.461C90.7124 527.227 90.4366 526.498 90.5918 525.958L90.7164 525.732C90.1203 525.26 90.5243 524.011 91.2445 524C91.9647 523.989 92.5462 524.876 92.4699 525.661L92.4307 525.667ZM94.7125 527.161C94.7125 527.161 94.4778 527.198 94.3445 527.116C93.5766 526.825 93.5031 525.6 93.775 524.785C94.0861 523.963 94.6008 523.16 94.4656 522.305C94.8269 522.815 95.1492 523.331 95.4714 523.846L95.2214 524.04C95.6782 525.153 95.5342 527.031 94.7125 527.161ZM99.8233 495.336C99.8368 500.744 98.8635 505.998 97.8823 511.203C97.5579 512.954 97.2335 514.706 96.8699 516.464C96.7001 517.418 96.0767 518.547 95.3724 518.658C95.1767 518.689 94.9652 518.62 94.7377 518.45C94.1257 517.877 94.397 516.803 94.716 516.032C96.6761 510.93 97.3821 505.254 98.0569 499.634C98.2945 497.587 98.5632 495.484 98.8008 493.437C99.4739 493.382 99.7663 494.469 99.7762 495.292L99.8233 495.336ZM101.26 487.432C100.875 487.029 100.435 486.532 100.465 485.961C100.495 485.389 101.332 485.102 101.498 485.643L101.42 485.655C101.711 486.227 101.634 487.012 101.22 487.438L101.26 487.432ZM101.403 478.96C101.051 479.016 100.714 478.914 100.439 478.7C99.6468 478.001 99.7524 476.387 100.644 475.937C101.535 475.487 102.704 476.539 102.636 477.631C102.591 478.36 102.029 478.861 101.403 478.96ZM101.847 471.883C101.651 471.914 101.44 471.844 101.361 471.599C101.321 471.09 102.111 471.017 102.222 471.463C102.261 471.714 102.043 471.852 101.847 471.883ZM104.682 456.854C104.927 460.679 103.809 464.514 101.64 467.279C101.76 465.25 101.888 463.272 102.008 461.244C102.415 454.945 102.814 448.597 103.182 442.304C103.197 441.89 103.282 441.413 103.626 441.307C104.34 445.315 104.46 449.367 103.969 453.36C103.8 454.572 103.726 456.129 104.643 456.86L104.682 456.854ZM103.785 432.935L103.676 433.261C102.922 432.041 103.308 430.177 104.458 429.583C105.267 430.64 104.872 432.454 103.785 432.935ZM47.6712 57.3113C45.6177 53.2054 45.0259 48.1984 46.1264 43.748C48.5527 46.6614 45.974 51.6549 47.6581 55.201C49.5312 59.1808 50.4819 63.6673 50.3754 68.0635C48.5294 65.5219 47.6052 62.2163 47.8163 58.9885C47.8462 58.4171 47.9464 57.7829 47.6633 57.261L47.6712 57.3113ZM50.4363 70.4753C52.5244 72.7725 53.5586 76.2668 53.1048 79.4815C51.0167 77.1843 49.9824 73.69 50.4363 70.4753ZM104.244 409.729C103.711 409.402 103.404 408.729 103.504 408.095L103.465 408.101C103.455 407.536 104.34 407.55 104.545 408.085C104.75 408.619 104.524 409.221 104.244 409.729ZM104.021 395.648C103.266 394.428 102.472 393.214 101.726 392.044L101.694 391.843C102.138 390.845 103.689 391.27 104.13 392.282C104.579 393.344 104.323 394.518 104.021 395.648ZM103.018 382.978C102.634 382.575 102.194 382.078 102.224 381.506C102.254 380.935 103.091 380.648 103.256 381.188L103.217 381.194C103.508 381.767 103.432 382.552 103.018 382.978ZM63.296 125.887C62.8862 124.818 62.2497 123.837 61.4573 123.138C61.7763 122.366 62.8718 122.193 63.3824 122.885C63.8154 123.847 63.8027 125.034 63.3351 125.88L63.296 125.887ZM102.915 375.987C102.059 375.144 101.813 373.585 102.358 372.469L102.412 372.306C102.867 372.388 103.368 372.515 103.83 372.648C103.528 373.778 103.217 374.857 102.907 375.937L102.915 375.987ZM102.476 366.628C101.732 366.231 101.525 364.924 102.118 364.366C102.863 364.764 103.062 366.02 102.476 366.628ZM101.738 347.012C101.857 350.548 101.975 354.085 102.094 357.621C100.306 353.164 99.8934 348.025 100.923 343.38C101.646 344.399 101.696 345.731 101.738 347.012ZM88.1815 250.7C87.7969 250.297 87.3572 249.8 87.3871 249.229C87.417 248.657 88.246 248.32 88.4197 248.911L88.3414 248.923C88.6325 249.495 88.5562 250.28 88.1423 250.706L88.1815 250.7ZM92.8823 280.406C93.627 280.803 93.8259 282.059 93.2403 282.667C92.4956 282.27 92.2967 281.013 92.8823 280.406ZM92.1665 275.882C92.5969 275.814 92.748 276.769 92.3176 276.837C91.8872 276.905 91.744 276 92.1665 275.882ZM91.9597 274.575C91.9597 274.575 91.7408 274.713 91.6626 274.725C90.8409 274.855 89.8973 273.201 90.7177 272.556C91.6084 271.848 92.8895 273.861 91.9988 274.569L91.9597 274.575ZM92.803 286.24C93.9078 286.632 93.2405 289.004 92.206 288.55C91.1403 288.152 91.7764 285.836 92.8421 286.234L92.803 286.24ZM99.2853 330.244L99.2462 330.25C99.5452 330.872 99.4689 331.657 99.0159 332.09C98.4583 331.354 97.9862 330.398 98.2031 329.488C98.42 328.577 99.6714 328.122 100.089 328.983C99.8312 329.385 99.5818 329.836 99.2933 330.294L99.2853 330.244ZM74.4213 176.42C75.744 179.457 76.277 182.824 75.9564 186.121C74.6336 183.084 74.1007 179.717 74.4213 176.42ZM98.7765 323.987C99.2069 323.919 99.3501 324.824 98.9276 324.942C98.5364 325.004 98.3461 324.055 98.7765 323.987ZM94.7281 295.364C94.819 294.164 94.4637 292.933 93.7568 292.014C93.3484 291.46 92.7834 290.932 92.9147 290.241C93.0693 289.444 94.1025 289.383 94.6754 289.962C95.2092 290.548 95.3445 291.402 95.4717 292.206C95.6626 293.413 95.6585 294.907 94.736 295.414L94.7281 295.364ZM90.7971 266.722C90.0829 266.01 89.7043 264.885 89.8191 263.837C89.3782 262.825 89.3909 261.638 89.8897 260.734C90.8491 262.489 91.1991 264.7 90.8282 266.665L90.7971 266.722ZM87.3065 245.171C86.3292 242.544 85.7352 239.804 85.5717 236.996C86.0956 236.759 86.5359 237.514 86.7175 238.155C87.3182 240.43 87.5434 242.867 87.3065 245.171ZM84.4544 234.752C83.4685 231.817 83.0065 228.644 83.0771 225.541C83.8714 227.013 84.8143 228.409 85.2413 230.093C85.6994 231.721 85.5321 233.705 84.4153 234.758L84.4544 234.752ZM80.101 206.228C81.1673 206.884 81.3289 208.919 80.3679 209.689L80.1631 209.155C79.8163 208.231 79.7667 207.157 80.101 206.228ZM80.3604 203.559C80.3604 203.559 80.2039 203.584 80.1257 203.597C79.3432 203.72 78.7358 201.91 79.6198 201.667L80.3439 203.201L80.3213 203.566L80.3604 203.559ZM77.4415 191.45L77.3241 191.469C76.3459 191.624 75.793 189.65 76.6843 189.2C76.8593 190.306 77.5038 191.337 78.3977 191.917C78.2584 192.557 77.1768 192.059 77.4415 191.45ZM73.6474 167.475C73.9709 168.506 74.2872 169.744 73.7022 170.609C73.5695 170.785 73.3819 170.866 73.1862 170.897C72.4819 171.008 71.5642 170.278 72.0165 169.588C72.7806 168.333 72.4551 166.53 71.794 165.141C71.133 163.751 70.1357 162.518 69.584 161.06C69.5131 160.865 69.4342 160.62 69.4806 160.406C69.5337 159.728 70.3475 159.548 70.8494 159.932C71.3514 160.316 71.5801 161.001 71.8009 161.636C72.4321 163.597 73.0633 165.558 73.6474 167.475ZM70.4126 157.425C70.028 157.022 69.5884 156.525 69.6182 155.953C69.6481 155.382 70.4771 155.045 70.6508 155.636L70.5726 155.648C70.8636 156.22 70.7873 157.005 70.3735 157.431L70.4126 157.425ZM68.965 148.277C67.9664 146.529 67.2178 144.586 66.8135 142.538C67.2849 143.236 67.7172 143.941 68.1887 144.639L68.0322 144.664C69.1999 145.2 69.7058 147.129 68.957 148.227L68.965 148.277ZM65.6479 130.357C66.226 132.997 66.491 135.685 66.5133 138.361C65.8523 136.971 65.1601 135.638 64.499 134.249L64.186 134.298C64.4732 133.325 63.8207 132.244 63.6066 131.144C63.4316 130.038 64.203 128.577 65.0577 129.163C65.4185 129.415 65.5763 129.905 65.6558 130.408L65.6479 130.357ZM62.4677 117.105C62.79 117.62 62.7057 118.355 62.331 118.775C60.8111 118.294 59.8583 116.075 60.4884 114.481C61.4758 114.891 62.2768 115.898 62.5771 117.036L62.4206 117.06L62.4677 117.105ZM60.5413 107.466C61.3655 108.366 61.6042 109.874 61.0901 110.934C60.5649 110.656 60.2109 109.94 60.3111 109.305C60.012 108.683 60.0883 107.898 60.5413 107.466ZM58.8733 100.98C56.5167 97.7468 55.4964 93.5805 54.5471 89.609C54.5152 89.408 54.4834 89.2069 54.4516 89.0059C54.4974 88.5349 55.0133 88.2472 55.4132 88.493C55.7269 88.701 55.8767 89.141 55.9795 89.5369C56.9441 93.3514 57.9087 97.1659 58.8733 100.98ZM50.2879 23.6659C49.2661 22.0244 48.2364 20.3325 47.2537 18.6848C47.1974 18.0755 48.0681 18.762 48.0853 19.3776L48.202 19.1015C49.4016 19.839 50.4997 20.6957 51.5434 21.7155C51.1223 22.3489 50.7091 23.0325 50.2879 23.6659ZM56.3203 28.5847C54.4702 27.538 53.1493 25.2739 53.0653 22.9688L54.3861 25.2328L54.1441 25.4772C55.5135 25.2605 56.7786 27.1726 56.3203 28.5847ZM65.2205 47.0635C64.4758 46.6661 64.269 45.3593 64.8625 44.8017C65.6072 45.199 65.8061 46.4556 65.2205 47.0635ZM76.4704 62.9035L76.3292 62.7713C76.3292 62.7713 76.2197 62.8402 76.1415 62.8525C75.7111 62.9206 75.239 61.9649 75.7629 61.7274C76.1873 62.3816 76.7914 62.9042 77.4731 63.157C77.42 63.8352 76.1978 63.4618 76.4624 62.8532L76.4704 62.9035ZM82.9278 68.734C82.4974 68.8021 82.3463 67.8471 82.7767 67.779C83.207 67.7109 83.3502 68.6156 82.9278 68.734ZM93.4878 96.6876C91.0834 93.1525 90.2575 88.4402 87.8532 84.9051C86.4388 82.8104 84.3268 80.3625 85.2839 78.0471C87.4939 82.1282 89.7039 86.2093 91.9139 90.2904C92.9914 92.2838 94.1166 94.5788 93.5349 96.7317L93.4878 96.6876ZM95.5228 99.6629L95.3815 99.5307C95.3815 99.5307 95.2721 99.5996 95.1939 99.6119C94.7635 99.68 94.2914 98.7243 94.7762 98.4931C95.2085 99.1975 95.8046 99.6699 96.4863 99.9226C96.4724 100.595 95.2111 100.227 95.4757 99.6189L95.5228 99.6629ZM97.7739 104.51L97.7035 104.573C97.6253 104.585 97.5623 104.441 97.5384 104.29C97.5146 104.139 97.4907 103.988 97.6864 103.957C97.9994 103.908 98.2354 104.386 98.299 104.788L98.3149 104.888C100.1 105.018 101.367 107.703 100.51 109.384C99.145 108.106 98.1855 106.352 97.797 104.404L97.7739 104.51Z" fill="white"/>
</svg>
