<svg width="1920" height="980" viewBox="0 0 1920 980" fill="none" xmlns="http://www.w3.org/2000/svg">
<g clip-path="url(#clip0_8621_66275)">
<rect width="1920" height="980" fill="url(#paint0_linear_8621_66275)"/>
<g filter="url(#filter0_b_8621_66275)">
<path d="M464.118 -13.8783C449.901 19.2115 465.776 57.5117 499.233 70.8412L1744.52 566.972C1788.43 584.464 1835.5 549.967 1832.04 502.831L1795.84 9.69466C1794.22 -12.3845 1781.3 -32.058 1761.69 -42.3235L773.509 -559.489C740.488 -576.771 699.743 -562.293 685.031 -528.05L464.118 -13.8783Z" fill="#D9E3EA"/>
<path d="M464.577 -13.681C450.471 19.1503 466.222 57.1513 499.418 70.3767L1744.71 566.507C1788.27 583.863 1834.97 549.635 1831.54 502.867L1795.34 9.73125C1793.73 -12.1754 1780.92 -31.6953 1761.45 -41.8805L773.277 -559.046C740.514 -576.193 700.088 -561.828 685.49 -527.853L464.577 -13.681Z" stroke="white"/>
</g>
<g filter="url(#filter1_b_8621_66275)">
<path d="M1410.29 1020.97C1425.62 988.381 1411.06 949.565 1378.07 935.109L150.313 397.048C107.025 378.077 58.8134 410.96 60.6738 458.186L80.1374 952.266C81.0089 974.387 93.251 994.487 112.506 1005.41L1082.58 1555.78C1115 1574.17 1156.21 1561.08 1172.08 1527.36L1410.29 1020.97Z" fill="#D9E3EA"/>
<path d="M1409.84 1020.76C1425.05 988.423 1410.6 949.91 1377.87 935.566L150.113 397.506C107.163 378.684 59.3275 411.309 61.1734 458.166L80.637 952.246C81.5017 974.195 93.6482 994.138 112.753 1004.98L1082.83 1555.34C1114.99 1573.59 1155.88 1560.61 1171.63 1527.14L1409.84 1020.76Z" stroke="white"/>
</g>
</g>
<defs>
<filter id="filter0_b_8621_66275" x="442.902" y="-582.805" width="1405.32" height="1170.4" filterUnits="userSpaceOnUse" color-interpolation-filters="sRGB">
<feFlood flood-opacity="0" result="BackgroundImageFix"/>
<feGaussianBlur in="BackgroundImageFix" stdDeviation="8"/>
<feComposite in2="SourceAlpha" operator="in" result="effect1_backgroundBlur_8621_66275"/>
<feBlend mode="normal" in="SourceGraphic" in2="effect1_backgroundBlur_8621_66275" result="shape"/>
</filter>
<filter id="filter1_b_8621_66275" x="44.6211" y="375.587" width="1387.78" height="1204.54" filterUnits="userSpaceOnUse" color-interpolation-filters="sRGB">
<feFlood flood-opacity="0" result="BackgroundImageFix"/>
<feGaussianBlur in="BackgroundImageFix" stdDeviation="8"/>
<feComposite in2="SourceAlpha" operator="in" result="effect1_backgroundBlur_8621_66275"/>
<feBlend mode="normal" in="SourceGraphic" in2="effect1_backgroundBlur_8621_66275" result="shape"/>
</filter>
<linearGradient id="paint0_linear_8621_66275" x1="508.5" y1="594.607" x2="573.599" y2="1765.29" gradientUnits="userSpaceOnUse">
<stop offset="0.00445129" stop-color="#EFF2F4"/>
<stop offset="1" stop-color="#88B3C1"/>
</linearGradient>
<clipPath id="clip0_8621_66275">
<rect width="1920" height="980" fill="white"/>
</clipPath>
</defs>
</svg>
