<svg width="1920" height="980" viewBox="0 0 1920 980" fill="none" xmlns="http://www.w3.org/2000/svg">
<g clip-path="url(#clip0_8621_66806)">
<rect width="1920" height="980" fill="url(#paint0_linear_8621_66806)"/>
<path d="M2389.68 957.781C2394.91 945.639 2389.11 931.567 2376.83 926.654L1601.66 616.406C1585.55 609.958 1568.25 622.597 1569.49 639.906L1592.77 963.991C1593.35 972.099 1598.08 979.33 1605.28 983.111L2213.35 1302.57C2225.46 1308.93 2240.43 1303.64 2245.85 1291.08L2389.68 957.781Z" fill="url(#paint1_linear_8621_66806)" stroke="white" stroke-width="0.594914"/>
<path d="M-56.0471 828.777C-46.8806 841.733 -28.8336 844.576 -16.1272 835.068L769.399 247.224C786.074 234.746 783.936 209.119 765.423 199.576L426.611 24.9291C417.94 20.4593 407.574 20.7883 399.204 25.7992L-293.573 440.519C-307.664 448.955 -311.595 467.6 -302.109 481.007L-56.0471 828.777Z" fill="url(#paint2_linear_8621_66806)" stroke="white" stroke-width="0.713984"/>
</g>
<defs>
<linearGradient id="paint0_linear_8621_66806" x1="724" y1="611.5" x2="1201.03" y2="1585.98" gradientUnits="userSpaceOnUse">
<stop offset="0.00445129" stop-color="#EFF2F4"/>
<stop offset="1" stop-color="#88B3C1"/>
</linearGradient>
<linearGradient id="paint1_linear_8621_66806" x1="1562.24" y1="689.707" x2="2116.25" y2="984.505" gradientUnits="userSpaceOnUse">
<stop stop-color="#D9E3EA"/>
<stop offset="1" stop-color="white" stop-opacity="0"/>
</linearGradient>
<linearGradient id="paint2_linear_8621_66806" x1="720.623" y1="162.176" x2="84.9646" y2="538.163" gradientUnits="userSpaceOnUse">
<stop stop-color="#D9E3EA"/>
<stop offset="1" stop-color="white" stop-opacity="0"/>
</linearGradient>
<clipPath id="clip0_8621_66806">
<rect width="1920" height="980" fill="white"/>
</clipPath>
</defs>
</svg>
