<svg width="200" height="201" viewBox="0 0 200 201" fill="none" xmlns="http://www.w3.org/2000/svg">
<path d="M173.852 113.649C175.955 101.758 175.159 89.5349 171.532 78.0173C167.904 66.4996 161.551 56.0271 153.012 47.4884C144.473 38.9497 134.001 32.5969 122.483 28.969C110.966 25.341 98.7427 24.5451 86.8518 26.6487C79.6595 21.7978 71.1755 19.2202 62.5003 19.2503C50.9008 19.2627 39.7801 23.876 31.578 32.078C23.376 40.2801 18.7627 51.4008 18.7503 63.0003C18.7202 71.6755 21.2978 80.1595 26.1487 87.3518C24.0451 99.2427 24.841 111.466 28.469 122.983C32.0969 134.501 38.4497 144.973 46.9884 153.512C55.5271 162.051 65.9996 168.404 77.5173 172.032C89.0349 175.659 101.258 176.455 113.149 174.352C120.341 179.203 128.825 181.78 137.5 181.75C149.1 181.738 160.22 177.125 168.422 168.922C176.625 160.72 181.238 149.6 181.25 138C181.28 129.325 178.703 120.841 173.852 113.649ZM100 144.25C82.7659 144.25 68.7503 133.032 68.7503 119.25C68.7503 117.593 69.4087 116.003 70.5808 114.831C71.7529 113.659 73.3427 113 75.0003 113C76.6579 113 78.2476 113.659 79.4197 114.831C80.5918 116.003 81.2503 117.593 81.2503 119.25C81.2503 126.024 89.844 131.75 100 131.75C110.157 131.75 118.75 126.024 118.75 119.25C118.75 111.844 112.024 109.094 97.7503 104.985C85.4456 101.438 70.1409 97.0237 70.1409 81.7503C70.1409 67.5003 82.9768 56.7503 100 56.7503C112.282 56.7503 122.797 62.4534 127.438 71.594C127.838 72.3288 128.087 73.1366 128.169 73.9693C128.252 74.8021 128.166 75.6429 127.917 76.4419C127.669 77.2409 127.262 77.9819 126.722 78.6208C126.181 79.2598 125.518 79.7836 124.771 80.1614C124.025 80.5392 123.21 80.7632 122.375 80.8201C121.54 80.8771 120.702 80.7657 119.911 80.4928C119.12 80.2198 118.392 79.7908 117.77 79.2311C117.148 78.6714 116.644 77.9925 116.289 77.2346C113.782 72.3284 107.539 69.2503 100 69.2503C90.1018 69.2503 82.6409 74.6253 82.6409 81.7503C82.6409 87.219 89.6721 89.6409 101.211 92.969C113.891 96.594 131.25 101.633 131.25 119.25C131.25 133.032 117.235 144.25 100 144.25Z" fill="#38ABFF"/>
</svg>
